<svg version="1.1" id="Layer_1" xmlns="http://www.w3.org/2000/svg" xmlns:xlink="http://www.w3.org/1999/xlink" x="0px" y="0px"
	 width="100%" viewBox="0 0 300 300" enable-background="new 0 0 300 300" xml:space="preserve">
<path fill="#FDFEFD" opacity="1.000000" stroke="none" 
	d="
M118.000000,1.000000 
	C139.020889,1.000000 160.041794,1.000000 181.271271,1.342491 
	C182.675537,2.162920 183.855911,2.684322 185.069351,3.111908 
	C194.606384,6.472505 204.525818,9.017341 213.623932,13.305944 
	C247.190506,29.128290 271.928070,53.899879 286.571472,88.090485 
	C285.418396,88.341629 284.660004,88.548523 283.562500,88.591980 
	C282.007721,88.110985 280.792114,87.793427 279.411194,87.278168 
	C278.487244,87.018204 277.728546,86.955956 276.606232,86.817657 
	C275.010986,86.676697 273.779388,86.611794 272.347565,86.315979 
	C271.396606,85.962929 270.645905,85.840775 269.555481,85.542252 
	C268.460846,85.305061 267.705902,85.244232 266.774597,84.881195 
	C267.956909,83.732628 269.315552,82.886276 270.674194,82.039917 
	C270.698120,81.662308 270.722015,81.284698 270.745941,80.907089 
	C267.603058,80.907089 264.460175,80.907089 261.317291,80.907089 
	C261.835114,82.261658 262.352966,83.616226 262.876862,84.986671 
	C262.415222,85.296623 261.735291,85.753166 260.675140,86.195091 
	C259.564972,86.365860 258.834991,86.551239 257.754211,86.578003 
	C256.900238,86.478119 256.397034,86.536850 255.630905,86.405441 
	C254.617355,85.786873 253.866760,85.358429 252.956177,84.647255 
	C251.829773,84.129608 250.863358,83.894684 249.601242,83.557617 
	C248.905716,83.544006 248.505875,83.632523 247.691406,83.584106 
	C245.819595,83.447929 244.362457,83.448692 242.706421,83.286652 
	C242.345398,83.068474 242.183258,83.013107 241.913757,82.683044 
	C241.174515,81.960106 240.542618,81.511864 239.837463,80.686264 
	C233.439743,78.606789 227.890594,73.791946 220.627594,75.661301 
	C221.853561,77.006065 223.386902,77.411125 224.785446,78.092789 
	C226.128342,78.747330 227.331543,79.688484 228.186401,80.552193 
	C225.888489,80.970848 224.000290,81.341011 221.843750,81.576309 
	C221.059769,81.669548 220.544128,81.897652 219.649231,82.114166 
	C218.549774,82.314957 217.829575,82.527336 216.766190,82.614624 
	C214.632538,83.060280 212.842056,83.631027 210.613251,84.175751 
	C205.021194,85.182060 199.015427,84.896416 194.910187,87.550491 
	C188.484833,91.704529 182.371628,89.429886 176.110168,89.278931 
	C170.061157,89.133102 164.023590,88.511436 157.682129,88.084564 
	C157.097000,88.338142 156.810760,88.605949 156.328430,88.955978 
	C155.892242,89.233910 155.784760,89.486137 155.826630,89.827133 
	C155.843323,89.859383 155.910294,89.834503 155.666519,89.939041 
	C155.292435,90.362740 155.162125,90.681885 154.794525,91.175102 
	C154.323715,91.880592 154.090210,92.412018 153.580139,93.093719 
	C152.191345,94.212189 151.079102,95.180382 149.722717,96.177200 
	C149.163956,96.364677 148.966019,96.615631 148.650604,97.043098 
	C148.232346,97.561920 148.048248,97.996323 147.629471,98.661423 
	C147.547379,99.462669 147.699982,100.033211 147.927536,100.939407 
	C148.788025,102.874199 149.573563,104.473335 150.230988,106.284103 
	C150.102890,106.495735 150.066742,106.989166 149.780853,107.186676 
	C147.163300,108.603775 144.831604,109.823372 142.502350,110.628677 
	C141.694061,106.817200 140.883347,103.420021 140.072617,100.022835 
	C139.461121,100.063652 138.849609,100.104469 138.238113,100.145287 
	C136.874939,102.437447 135.511780,104.729599 133.802979,107.602974 
	C136.952148,108.817215 139.771042,109.904114 142.424759,111.244576 
	C141.793594,111.874283 141.327591,112.250427 140.566650,112.810776 
	C140.230835,113.650970 140.189926,114.306953 140.116623,115.309097 
	C140.123123,116.116455 140.162003,116.577644 140.067520,117.195465 
	C139.934158,117.352104 139.900909,117.762199 139.567749,117.828064 
	C138.111496,118.428169 136.988388,118.962402 135.630280,119.674149 
	C135.313461,120.223152 135.231674,120.594635 135.038422,121.344658 
	C135.598938,123.338326 136.270905,124.953453 137.007233,126.839920 
	C137.406357,127.785530 137.741165,128.459808 137.935181,129.365875 
	C137.506058,130.043854 137.217728,130.490021 136.960724,130.969727 
	C136.992035,131.003265 136.937424,130.932358 136.644058,131.056625 
	C135.833710,132.076218 135.316727,132.971542 134.838470,133.895569 
	C134.877197,133.924286 134.904236,133.831726 134.671722,133.940277 
	C134.318054,134.359329 134.196915,134.669861 133.854034,135.175003 
	C133.378510,135.892349 133.124725,136.415054 132.585297,137.137726 
	C131.524673,138.617569 130.503510,139.810608 130.016357,141.191986 
	C127.604332,148.031708 128.178101,154.615799 132.120834,160.796692 
	C135.438477,165.997650 140.150833,164.045425 144.725281,163.359467 
	C147.966278,162.873474 150.191284,164.369888 150.872849,167.755569 
	C151.164948,169.206528 151.482727,170.652313 151.784576,172.505371 
	C152.473053,178.133575 152.946884,183.397903 153.916428,188.569290 
	C155.013916,194.422958 156.295059,200.273911 158.050461,205.954819 
	C158.642242,207.869949 160.985764,210.635193 162.426498,210.574783 
	C164.661835,210.481049 167.879074,208.816101 168.801300,206.908844 
	C172.042542,200.205673 176.079300,193.277740 176.808380,186.128555 
	C177.658127,177.796371 179.430313,170.793335 184.947617,164.377365 
	C188.664276,160.055313 187.339859,157.483704 182.021027,155.879211 
	C182.405533,155.143066 182.684357,154.664139 183.262146,154.183105 
	C190.652176,152.331451 194.670273,147.148148 193.118744,141.809174 
	C193.898346,141.336899 194.501846,141.134430 195.493225,140.918976 
	C196.916336,140.949600 197.951569,140.993195 199.120209,141.312820 
	C200.395096,142.432495 201.536575,143.276154 202.845612,144.385162 
	C203.943146,145.465286 204.873123,146.280060 205.798431,147.525986 
	C205.983459,149.665680 206.173157,151.374207 206.321625,153.362488 
	C206.477402,153.950714 206.674408,154.259186 206.786346,154.912415 
	C207.784424,156.574371 208.867569,157.891602 210.225357,159.120331 
	C210.649185,158.691574 210.798355,158.351288 211.131058,157.660095 
	C212.883560,153.556152 214.452545,149.803146 216.314056,145.937759 
	C217.229080,145.263641 217.851532,144.701889 218.812042,144.144897 
	C220.180450,144.454300 221.210785,144.758942 222.257263,145.328827 
	C222.478378,145.879440 222.683350,146.164841 222.828827,146.775482 
	C223.162033,148.076828 223.554718,149.052902 224.060455,150.330139 
	C225.116165,151.085175 226.058807,151.539047 227.142212,152.346069 
	C227.056305,156.766891 226.829636,160.834595 226.462082,165.171295 
	C227.151703,167.163620 227.982208,168.886917 228.802002,170.930832 
	C229.539993,172.497101 230.288712,173.742767 231.200378,175.316376 
	C232.261612,175.745224 233.159882,175.846100 234.151505,176.312805 
	C235.599930,180.000900 248.143509,183.639755 250.723953,181.406570 
	C251.137024,181.049072 251.478653,180.206635 251.344711,179.731903 
	C251.208984,179.250854 250.485489,178.698227 249.945755,178.605362 
	C244.636780,177.691925 239.312408,176.867874 233.938019,175.763977 
	C233.856583,175.338120 233.829544,175.166733 234.034882,174.728668 
	C234.302002,173.265045 234.336716,172.068130 234.228622,170.566391 
	C233.499374,169.609619 232.912933,168.957672 232.492584,168.005554 
	C232.171082,166.479416 231.683502,165.253433 231.153534,163.759521 
	C231.013702,163.339249 230.916214,163.186935 230.843582,162.678101 
	C231.948578,161.349823 233.028702,160.378036 234.409210,159.276794 
	C234.966827,158.800903 235.224075,158.454468 235.718124,157.877991 
	C235.994598,155.770767 236.034241,153.893616 236.130707,151.663818 
	C238.408295,148.363022 240.238388,144.971252 242.951324,142.581863 
	C246.155106,139.760132 247.656891,136.760681 247.281570,132.576141 
	C247.123779,130.817093 247.454514,129.014236 247.625061,126.215424 
	C249.847305,128.039459 251.036102,129.015228 252.509964,130.224991 
	C252.948517,129.079926 253.647125,128.198853 253.454346,127.609253 
	C251.983017,123.109215 254.627609,121.180908 257.903259,118.925995 
	C260.344360,117.245583 261.932312,114.325790 264.303558,112.080589 
	C265.071960,118.660843 264.628693,124.666283 257.995972,128.367783 
	C256.506409,129.199081 255.801498,131.436386 254.735352,133.026413 
	C261.812195,131.232773 266.336823,127.063248 266.759369,120.389755 
	C267.029999,116.115730 270.020538,110.352898 263.111694,107.846512 
	C263.021729,107.874458 263.209473,107.858780 263.131714,107.580399 
	C262.758759,107.062622 262.463593,106.823219 262.076965,106.208008 
	C263.099060,104.303841 263.985168,101.741837 265.368164,101.437462 
	C269.839478,100.453423 274.493439,100.299118 278.814423,99.852257 
	C277.881775,102.994766 276.862427,106.429314 275.843109,109.863861 
	C276.521057,110.148201 277.199036,110.432541 277.876984,110.716881 
	C279.306854,108.790993 281.709869,106.992065 281.980865,104.914978 
	C282.739319,99.101593 286.488312,98.677322 290.989868,99.153664 
	C291.759796,100.999924 292.779694,102.403572 293.115143,103.955200 
	C295.214417,113.666267 297.122040,123.418686 299.202789,133.133911 
	C299.492950,134.488770 300.386047,135.714493 301.000000,137.000000 
	C301.000000,144.354248 301.000000,151.708496 300.619995,159.293396 
	C299.760315,162.265961 299.256500,165.003906 298.804504,167.750351 
	C288.937927,227.703262 256.002411,269.802368 198.608536,289.476318 
	C141.033234,309.212494 88.862312,296.252228 44.504093,254.531555 
	C22.822754,234.139404 9.655305,208.560822 3.166555,179.527863 
	C2.881881,178.254120 1.741685,177.171600 1.000000,176.000000 
	C1.000000,157.979111 1.000000,139.958206 1.340930,121.764877 
	C3.424508,116.054039 5.167155,110.515640 7.262461,104.927704 
	C9.995524,103.381714 12.240970,101.562141 14.799977,100.493279 
	C16.768312,99.671143 19.860638,98.745758 21.194592,99.674316 
	C27.562765,104.107140 34.677170,109.004059 36.063232,116.829536 
	C37.492630,124.899681 41.310551,131.330460 45.202278,138.287262 
	C45.446907,138.810989 45.667015,139.074646 45.887711,139.520477 
	C45.888294,139.702637 46.112694,139.989655 46.133312,140.291061 
	C47.279667,142.993576 48.541389,142.940430 50.201309,140.909485 
	C51.170609,141.736221 51.857311,142.454529 52.661205,143.515244 
	C54.513855,145.966568 56.249317,148.075500 58.145760,150.339111 
	C58.306744,150.493790 58.745701,150.575592 58.943695,150.825821 
	C62.747440,153.739212 66.250084,156.561356 70.003998,158.996094 
	C71.785538,160.151581 74.046654,160.567657 76.291840,161.664856 
	C76.379982,163.617722 76.723358,165.441971 76.078529,166.795395 
	C72.272659,174.783417 74.620399,181.365021 79.511246,188.129395 
	C81.650475,191.088104 82.517113,195.528900 82.547913,199.308197 
	C82.586632,204.058456 81.064857,208.805557 80.422134,213.581696 
	C79.781380,218.343140 79.166061,223.129517 78.971336,227.922485 
	C78.822830,231.577698 80.848045,232.955429 82.710327,232.269623 
	C85.799706,225.942444 87.365532,220.103622 90.920273,215.978836 
	C99.496941,206.026794 108.733910,196.708435 111.354355,182.810532 
	C111.852272,181.534988 112.122047,180.492401 112.396149,179.406174 
	C112.400467,179.362534 112.389320,179.275543 112.608955,179.141556 
	C112.867027,178.673981 112.905457,178.340393 113.029663,177.676498 
	C112.814217,176.540115 112.512993,175.734039 112.092224,174.661774 
	C111.638298,174.219299 111.303925,174.043015 110.891495,173.789291 
	C110.813431,173.711853 110.602684,173.774673 110.425247,173.513290 
	C109.496712,173.071320 108.745628,172.890717 107.652008,172.511353 
	C106.527130,172.246475 105.744797,172.180374 104.767395,171.916992 
	C104.038101,171.612122 103.503883,171.504501 102.813675,171.206085 
	C102.402443,170.771652 102.099251,170.667389 101.700516,170.495728 
	C101.652916,170.288940 101.305023,170.045868 101.221329,169.751984 
	C100.824203,169.223907 100.510773,168.989716 100.209915,168.817963 
	C100.222504,168.880386 100.323250,168.802475 100.291168,168.494049 
	C99.865997,167.726120 99.472908,167.266602 98.947296,166.503540 
	C94.632195,163.026398 92.121185,157.484131 85.737595,156.888123 
	C83.666916,156.762115 81.812012,156.871643 79.669624,157.116058 
	C78.927856,157.693344 78.473564,158.135712 77.598137,158.523499 
	C69.715324,156.821198 69.040108,150.486359 67.639229,144.423264 
	C65.125969,145.083313 63.656235,149.868881 60.256821,146.302612 
	C60.292267,146.179718 60.116337,145.994003 60.109684,145.665054 
	C59.795876,144.533447 59.488720,143.730789 59.216473,142.573715 
	C59.241821,141.507751 59.232258,140.796219 59.416718,139.873322 
	C59.748631,139.111862 59.886524,138.561752 60.313286,137.793732 
	C65.608665,132.519760 70.028519,134.290588 74.389404,139.204956 
	C72.655960,131.424225 77.885681,126.727791 81.863922,122.406799 
	C85.766205,118.168297 91.100937,114.419655 98.541817,115.155449 
	C96.222610,110.463554 93.529495,106.253548 90.620171,102.198639 
	C89.926483,101.231804 88.571846,100.648300 87.414551,100.123848 
	C84.973083,99.017441 82.461105,98.066650 79.990219,96.695801 
	C80.007355,95.864349 80.012344,95.389107 80.372200,95.015671 
	C81.317924,95.408485 81.983864,95.605103 82.487450,96.005775 
	C85.785889,98.630157 87.712357,96.459480 89.223640,93.901237 
	C91.014412,90.869881 88.476318,89.740875 86.388191,88.783142 
	C82.334427,86.923843 78.191895,85.258118 74.014954,83.262985 
	C73.295464,83.009026 72.647163,83.004272 71.600143,83.031342 
	C70.135315,83.044922 69.069191,83.026688 67.821060,82.758720 
	C66.758011,82.677467 65.876968,82.845955 64.663879,83.007141 
	C63.889088,83.005806 63.446339,83.011749 63.007095,82.666367 
	C62.989552,81.846992 62.968498,81.378937 63.242043,80.613510 
	C71.963745,80.918381 78.830223,76.360260 86.310188,73.432961 
	C83.307152,72.775375 80.342400,72.458153 77.467316,72.831459 
	C66.291862,74.282509 55.130791,75.866066 44.008766,77.673508 
	C42.875435,77.857689 42.040298,79.876831 40.753334,81.283844 
	C38.915112,82.639687 37.393284,83.760185 35.864674,84.871368 
	C34.519096,85.849495 33.175732,87.632690 31.814428,87.649055 
	C25.751451,87.721909 19.682383,87.288124 13.682613,86.661255 
	C14.134801,85.365379 14.465504,84.418297 14.912787,83.529915 
	C35.931286,41.783592 69.211174,15.220906 114.283737,3.215131 
	C115.624069,2.858111 116.765717,1.755163 118.000000,1.000000 
M268.652130,214.823608 
	C273.133453,213.039719 272.958954,208.662155 274.139740,204.162964 
	C274.946228,195.432480 266.683105,190.720322 264.630219,183.089661 
	C264.084717,184.684250 263.539215,186.278824 262.865234,188.248871 
	C260.782135,186.034302 259.168304,182.893097 257.334534,182.758987 
	C255.393204,182.617004 253.243988,185.337402 251.180496,186.800461 
	C251.048965,186.893723 250.861557,186.904831 250.720383,186.988373 
	C241.308685,192.556198 238.168625,202.355453 243.079956,211.912170 
	C244.648483,211.060028 246.255951,210.283844 247.764755,209.348541 
	C252.040009,206.698288 255.705078,206.122253 259.630646,210.534851 
	C261.549377,212.691605 265.124817,213.374451 268.652130,214.823608 
M128.995056,76.257507 
	C130.333893,75.908279 131.672729,75.559052 133.011566,75.209816 
	C132.912781,74.644943 132.814011,74.080063 132.715240,73.515182 
	C131.136246,73.701591 129.557251,73.887993 127.202980,73.903320 
	C119.510201,73.508934 111.817429,73.114540 103.510513,72.414185 
	C102.678177,72.631607 101.845848,72.849030 100.179008,73.016647 
	C98.827850,73.275902 97.476685,73.535149 95.595001,73.499428 
	C95.076080,73.720650 94.557152,73.941872 93.306061,74.185020 
	C89.438042,75.961548 85.570030,77.738075 81.702019,79.514595 
	C81.757072,79.991974 81.812126,80.469345 81.867180,80.946724 
	C83.267372,81.316765 84.719498,82.136383 86.059067,81.981636 
	C93.120811,81.165886 95.410439,83.056137 97.148384,90.208725 
	C97.843231,93.068436 99.679787,95.802963 101.522614,98.188110 
	C103.316566,100.510002 105.747925,100.205215 107.163246,97.588272 
	C109.464905,93.332466 113.569954,92.290367 117.602661,90.661377 
	C120.492790,89.493935 123.521080,87.571671 125.325684,85.128006 
	C127.065605,82.771919 127.314819,79.314980 128.995056,76.257507 
M259.545898,176.016205 
	C260.668884,177.536148 261.791840,179.056091 263.012146,180.707764 
	C265.370331,179.825089 267.592773,178.993225 270.276794,177.988602 
	C266.636200,171.630890 259.799469,172.709564 255.356400,169.386154 
	C254.951675,169.795761 254.546951,170.205353 254.142242,170.614944 
	C255.721588,172.319565 257.300934,174.024200 259.545898,176.016205 
M243.863144,170.150040 
	C244.210907,167.481598 244.558685,164.813141 244.906448,162.144699 
	C243.958389,161.579620 243.010315,161.014542 242.062256,160.449463 
	C241.093353,162.180527 240.430344,164.206223 239.099121,165.588303 
	C234.830978,170.019623 235.320602,172.271103 241.801102,174.756622 
	C242.370575,173.467697 242.948685,172.159180 243.863144,170.150040 
M180.320602,193.802673 
	C180.536133,195.779007 180.751678,197.755325 180.967224,199.731659 
	C181.729523,199.743423 182.491837,199.755173 183.254135,199.766937 
	C184.564133,194.731873 185.874130,189.696808 187.184128,184.661743 
	C186.337311,184.360291 185.490494,184.058838 184.643692,183.757385 
	C183.250000,186.842819 181.856323,189.928253 180.320602,193.802673 
M185.018158,77.673660 
	C189.755966,77.191429 194.814651,78.024963 198.865036,74.340881 
	C193.642441,73.801399 188.419296,73.505394 183.451019,74.492363 
	C180.805099,75.017982 182.372559,76.859306 185.018158,77.673660 
M153.036560,78.899597 
	C159.007904,80.984703 163.143677,80.219971 165.034790,76.086754 
	C161.571381,75.912331 158.317642,75.551857 155.090500,75.715515 
	C154.215179,75.759911 153.420151,77.387642 153.036560,78.899597 
M245.877502,152.589447 
	C247.130768,156.197525 248.384033,159.805603 249.637283,163.413666 
	C250.160416,163.240936 250.683533,163.068207 251.206650,162.895477 
	C252.360321,157.540939 249.330765,153.277832 246.705765,147.557953 
	C246.250198,149.773102 246.040909,150.790756 245.877502,152.589447 
M77.655167,144.541031 
	C76.627762,144.164032 75.600357,143.787018 74.572945,143.410004 
	C77.322105,148.108765 80.575790,151.357376 87.464233,148.174850 
	C83.639000,146.755997 80.974350,145.767624 77.655167,144.541031 
M123.027161,91.657570 
	C121.205338,95.121834 124.154808,95.763695 126.082184,95.720673 
	C128.085617,95.675941 130.058838,94.277054 132.045258,93.470329 
	C131.190613,92.852921 130.393478,91.834885 129.469269,91.702232 
	C127.596313,91.433426 125.654533,91.644135 123.027161,91.657570 
M191.768280,81.109283 
	C190.260681,82.227089 188.753098,83.344902 187.245499,84.462708 
	C187.973160,85.265533 189.237030,86.836128 189.349258,86.757759 
	C191.564774,85.210434 193.646759,83.471893 196.714844,80.999489 
	C194.406372,80.999489 193.459610,80.999489 191.768280,81.109283 
M245.490540,171.258102 
	C245.854385,172.953247 246.218231,174.648407 246.582092,176.343567 
	C247.828186,173.833435 249.074280,171.323288 250.320374,168.813156 
	C249.838303,168.502533 249.356216,168.191910 248.874130,167.881287 
	C247.868668,168.785812 246.863220,169.690338 245.490540,171.258102 
z"/>
<path fill="#262623" opacity="1.000000" stroke="none" 
	d="
M1.000000,176.468658 
	C1.741685,177.171600 2.881881,178.254120 3.166555,179.527863 
	C9.655305,208.560822 22.822754,234.139404 44.504093,254.531555 
	C88.862312,296.252228 141.033234,309.212494 198.608536,289.476318 
	C256.002411,269.802368 288.937927,227.703262 298.804504,167.750351 
	C299.256500,165.003906 299.760315,162.265961 300.619995,159.762024 
	C301.000000,206.963669 301.000000,253.927322 301.000000,300.945496 
	C201.113678,300.945496 101.227333,300.945496 1.000000,300.945496 
	C1.000000,259.646393 1.000000,218.291855 1.000000,176.468658 
z"/>
<path fill="#262623" opacity="1.000000" stroke="none" 
	d="
M301.000000,136.531342 
	C300.386047,135.714493 299.492950,134.488770 299.202789,133.133911 
	C297.122040,123.418686 295.214417,113.666267 293.115143,103.955200 
	C292.779694,102.403572 291.759796,100.999924 291.058838,98.811188 
	C289.900818,95.336136 288.740234,92.577766 287.550110,89.498199 
	C287.335724,88.800064 287.150940,88.423149 286.966125,88.046227 
	C271.928070,53.899879 247.190506,29.128290 213.623932,13.305944 
	C204.525818,9.017341 194.606384,6.472505 185.069351,3.111908 
	C183.855911,2.684322 182.675537,2.162920 181.739929,1.342491 
	C221.598511,1.000000 261.197021,1.000000 301.000000,1.000000 
	C301.000000,46.020687 301.000000,91.041687 301.000000,136.531342 
z"/>
<path fill="#262623" opacity="1.000000" stroke="none" 
	d="
M117.531342,1.000000 
	C116.765717,1.755163 115.624069,2.858111 114.283737,3.215131 
	C69.211174,15.220906 35.931286,41.783592 14.912787,83.529915 
	C14.465504,84.418297 14.134801,85.365379 13.432619,86.879745 
	C11.046952,93.308693 8.978377,99.142967 6.909802,104.977242 
	C5.167155,110.515640 3.424508,116.054039 1.340930,121.296219 
	C1.000000,81.073959 1.000000,41.147919 1.000000,1.000000 
	C39.687279,1.000000 78.374977,1.000000 117.531342,1.000000 
z"/>
<path fill="#4ED376" opacity="1.000000" stroke="none" 
	d="
M287.579651,89.819405 
	C288.740234,92.577766 289.900818,95.336136 290.992371,98.436981 
	C286.488312,98.677322 282.739319,99.101593 281.980865,104.914978 
	C281.709869,106.992065 279.306854,108.790993 277.876984,110.716881 
	C277.199036,110.432541 276.521057,110.148201 275.843109,109.863861 
	C276.862427,106.429314 277.881775,102.994766 278.814423,99.852257 
	C274.493439,100.299118 269.839478,100.453423 265.368164,101.437462 
	C263.985168,101.741837 263.099060,104.303841 262.120880,106.509827 
	C262.574005,107.411232 262.891754,107.635010 263.209473,107.858780 
	C263.209473,107.858780 263.021729,107.874458 263.050568,108.218361 
	C263.352997,109.694168 263.626587,110.826073 263.900208,111.957962 
	C261.932312,114.325790 260.344360,117.245583 257.903259,118.925995 
	C254.627609,121.180908 251.983017,123.109215 253.454346,127.609253 
	C253.647125,128.198853 252.948517,129.079926 252.509964,130.224991 
	C251.036102,129.015228 249.847305,128.039459 247.625061,126.215424 
	C247.454514,129.014236 247.123779,130.817093 247.281570,132.576141 
	C247.656891,136.760681 246.155106,139.760132 242.951324,142.581863 
	C240.238388,144.971252 238.408295,148.363022 235.859299,151.494202 
	C234.122528,151.739426 232.713974,151.801636 230.625687,151.893875 
	C229.552200,150.903351 227.788223,149.275711 225.958206,147.587128 
	C226.380478,146.548538 227.025620,145.649628 227.059494,144.728256 
	C227.120789,143.061203 226.817337,141.380753 226.666183,139.705872 
	C225.168198,139.883636 223.469070,139.666565 222.207886,140.309128 
	C217.358627,142.779755 213.376541,140.906021 210.451416,137.419525 
	C208.277084,134.827927 206.209824,134.806137 203.502075,135.349670 
	C200.276093,135.997253 197.030121,136.545120 192.998962,137.281128 
	C192.998962,134.258270 192.861801,131.982086 193.033798,129.729477 
	C193.246948,126.938011 192.198486,125.652565 189.299530,125.673462 
	C189.274902,124.891174 189.306870,124.442520 189.707306,123.984390 
	C193.756393,123.376427 193.370468,120.812599 192.509689,118.393242 
	C191.928314,116.759163 190.885681,115.203506 189.734421,113.888512 
	C188.987747,113.035652 187.673676,112.679535 186.613846,112.100845 
	C186.098999,113.137634 185.584152,114.174423 184.982269,115.460434 
	C184.587723,116.139656 184.280228,116.569672 183.592590,117.001038 
	C181.425827,117.668030 179.639206,118.333679 177.800171,118.916290 
	C177.747726,118.833260 177.800323,118.643135 177.856598,118.205879 
	C178.181335,116.666000 178.752396,115.529915 178.635178,114.469948 
	C178.512100,113.357285 177.729431,112.317574 177.235016,111.245979 
	C176.156265,111.830147 175.077530,112.414314 173.641052,112.933121 
	C172.855545,111.578514 172.427765,110.289261 171.999786,108.629646 
	C171.332870,106.839470 170.666138,105.419655 170.091370,103.603729 
	C174.178070,102.805084 178.166718,102.146515 182.168701,102.051895 
	C191.230606,101.837631 200.300690,101.971054 209.362732,101.760048 
	C210.442184,101.734909 211.674484,100.617630 212.517990,99.710815 
	C214.268936,97.828491 215.806335,95.747543 217.657639,93.470062 
	C216.487701,87.159843 218.386520,84.605942 225.387146,84.051956 
	C228.032913,83.842590 230.716904,84.138985 233.367676,83.964539 
	C236.261703,83.774101 239.137405,83.305244 242.021103,82.957748 
	C242.183258,83.013107 242.345398,83.068474 242.821228,83.589508 
	C244.791946,83.943787 246.448990,83.832413 248.106049,83.721039 
	C248.505875,83.632523 248.905716,83.544006 249.742706,83.829391 
	C251.158630,84.445534 252.137390,84.687759 253.116165,84.929985 
	C253.866760,85.358429 254.617355,85.786873 255.712479,86.620117 
	C256.739685,86.928818 257.422333,86.832718 258.105011,86.736618 
	C258.834991,86.551239 259.564972,86.365860 260.906525,86.400284 
	C263.329071,86.141197 265.140015,85.662300 266.950989,85.183411 
	C267.705902,85.244232 268.460846,85.305061 269.715088,85.808243 
	C270.992218,86.349365 271.769989,86.448128 272.547791,86.546883 
	C273.779388,86.611794 275.010986,86.676697 276.842407,87.103561 
	C278.153656,87.468971 278.865082,87.472420 279.576477,87.475876 
	C280.792114,87.793427 282.007721,88.110985 283.743622,88.869316 
	C285.369141,89.479858 286.474396,89.649628 287.579651,89.819405 
z"/>
<path fill="#4BD475" opacity="1.000000" stroke="none" 
	d="
M189.356110,126.007095 
	C192.198486,125.652565 193.246948,126.938011 193.033798,129.729477 
	C192.861801,131.982086 192.998962,134.258270 192.998962,137.281128 
	C197.030121,136.545120 200.276093,135.997253 203.502075,135.349670 
	C206.209824,134.806137 208.277084,134.827927 210.451416,137.419525 
	C213.376541,140.906021 217.358627,142.779755 222.207886,140.309128 
	C223.469070,139.666565 225.168198,139.883636 226.666183,139.705872 
	C226.817337,141.380753 227.120789,143.061203 227.059494,144.728256 
	C227.025620,145.649628 226.380478,146.548538 225.958206,147.587128 
	C227.788223,149.275711 229.552200,150.903351 230.625687,151.893875 
	C232.713974,151.801636 234.122528,151.739426 235.802490,151.846832 
	C236.034241,153.893616 235.994598,155.770767 235.385986,157.968048 
	C234.580963,158.660858 234.344879,159.033539 234.108810,159.406235 
	C233.028702,160.378036 231.948578,161.349823 230.706665,162.810394 
	C230.761887,163.541931 230.978897,163.784698 231.195908,164.027466 
	C231.683502,165.253433 232.171082,166.479416 232.422287,168.414856 
	C232.914413,169.706604 233.642914,170.288910 234.371429,170.871201 
	C234.336716,172.068130 234.302002,173.265045 233.689514,174.729553 
	C232.420288,174.994232 231.728851,174.991333 231.037415,174.988419 
	C230.288712,173.742767 229.539993,172.497101 228.871338,170.507141 
	C229.702393,167.401581 231.065750,164.744446 226.602966,164.902283 
	C226.829636,160.834595 227.056305,156.766891 227.086700,151.999054 
	C225.909409,150.875580 224.928406,150.452286 223.947403,150.028992 
	C223.554718,149.052902 223.162033,148.076828 222.808777,146.504852 
	C222.645844,145.627167 222.443481,145.345383 222.241119,145.063599 
	C221.210785,144.758942 220.180450,144.454300 218.439102,144.132538 
	C217.159225,144.760315 216.590363,145.405212 216.021515,146.050110 
	C214.452545,149.803146 212.883560,153.556152 210.901062,157.798218 
	C210.308578,158.594467 210.129639,158.901657 209.950699,159.208832 
	C208.867569,157.891602 207.784424,156.574371 206.780334,154.638184 
	C206.693878,153.707062 206.528366,153.394913 206.362854,153.082748 
	C206.173157,151.374207 205.983459,149.665680 206.078766,147.328720 
	C205.135208,145.840149 203.906631,144.979980 202.678070,144.119812 
	C201.536575,143.276154 200.395096,142.432495 199.050919,140.932816 
	C197.426392,139.899567 196.004532,139.522354 194.219086,139.181076 
	C191.030792,138.009888 188.206100,136.802765 185.090149,135.471146 
	C186.527420,141.019150 186.648773,141.114731 192.942627,142.078979 
	C194.670273,147.148148 190.652176,152.331451 183.058731,153.914032 
	C181.386612,151.765503 180.216888,149.883926 179.405594,148.041046 
	C182.341553,147.335358 184.919098,146.591003 187.496628,145.846649 
	C186.077774,141.593155 182.930481,139.385727 177.657715,137.808624 
	C178.427582,139.883224 179.157349,141.075943 179.229614,142.307236 
	C179.280685,143.177338 178.440979,144.099747 177.804703,144.715302 
	C176.558716,142.548035 175.506958,140.664276 173.983017,137.934830 
	C172.798798,144.215912 177.214218,153.369507 181.915344,156.136429 
	C187.339859,157.483704 188.664276,160.055313 184.947617,164.377365 
	C179.430313,170.793335 177.658127,177.796371 176.808380,186.128555 
	C176.079300,193.277740 172.042542,200.205673 168.801300,206.908844 
	C167.879074,208.816101 164.661835,210.481049 162.426498,210.574783 
	C160.985764,210.635193 158.642242,207.869949 158.050461,205.954819 
	C156.295059,200.273911 155.013916,194.422958 153.916428,188.569290 
	C152.946884,183.397903 152.473053,178.133575 152.088654,172.283600 
	C153.165482,169.352509 153.933990,167.048111 154.690430,164.779907 
	C153.395706,164.134872 152.314896,163.596420 151.646774,163.263565 
	C152.147110,161.080948 152.540588,159.364487 153.172562,156.607681 
	C151.489792,157.533585 150.887360,157.757019 150.416275,158.141418 
	C146.749023,161.133881 140.648514,161.761353 136.780350,159.229218 
	C135.916992,158.664078 134.969833,156.852737 135.272598,156.106903 
	C137.031784,151.773315 134.693939,150.984085 130.361084,151.426880 
	C131.183304,148.934769 132.028351,147.200745 132.291855,145.382462 
	C132.695389,142.598068 132.698105,139.755585 132.870956,136.937759 
	C133.124725,136.415054 133.378510,135.892349 134.063995,135.043732 
	C134.748611,134.476334 134.884796,134.180969 134.904236,133.831726 
	C134.904236,133.831726 134.877197,133.924286 135.207062,133.892670 
	C136.003769,132.884827 136.470596,131.908585 136.937424,130.932358 
	C136.937424,130.932358 136.992035,131.003265 137.352173,130.998993 
	C138.806976,132.570831 139.974609,134.102417 140.973022,135.737305 
	C141.757324,137.021545 142.332581,138.433441 143.000702,139.788635 
	C144.295135,138.938263 145.593475,138.093750 146.882767,137.235626 
	C147.904358,136.555664 148.921860,135.258057 149.929199,135.269730 
	C155.473389,135.333954 161.037674,135.486801 166.548660,136.057373 
	C171.587097,136.579025 175.996674,136.880859 176.227173,129.930191 
	C176.260193,128.935074 177.382065,127.976044 178.389297,127.011780 
	C179.408615,128.204483 180.403259,129.334915 180.576736,130.579788 
	C180.795410,132.148865 180.343582,133.811401 180.181030,135.433609 
	C180.513641,135.501694 180.846268,135.569763 181.178894,135.637848 
	C182.418259,134.196503 183.657623,132.755142 184.977722,131.219925 
	C182.597015,127.979591 182.805801,122.647812 176.848007,122.822296 
	C176.695404,122.643990 176.390762,122.286896 176.518509,122.197906 
	C176.646255,122.108925 176.944824,122.020485 177.180298,121.902374 
	C177.603333,121.494942 177.790909,121.205612 177.955292,120.596909 
	C177.905579,119.851471 177.879089,119.425400 177.852600,118.999329 
	C179.639206,118.333679 181.425827,117.668030 183.608673,117.404381 
	C184.677765,120.521217 185.163269,123.301353 186.079819,125.931259 
	C186.883774,128.238098 188.206802,128.267471 189.356110,126.007095 
M205.038666,138.602905 
	C204.423340,139.447281 203.808014,140.291656 203.084061,141.285110 
	C205.513565,142.159424 207.496002,142.872833 209.478439,143.586243 
	C209.734848,143.221680 209.991241,142.857117 210.247650,142.492569 
	C208.717422,141.096527 207.187195,139.700485 205.038666,138.602905 
z"/>
<path fill="#4CD477" opacity="1.000000" stroke="none" 
	d="
M7.262461,104.927704 
	C8.978377,99.142967 11.046952,93.308693 13.365522,87.255936 
	C19.682383,87.288124 25.751451,87.721909 31.814428,87.649055 
	C33.175732,87.632690 34.519096,85.849495 35.864674,84.871368 
	C37.393284,83.760185 38.915112,82.639687 40.737854,81.260529 
	C41.035824,80.997818 40.984947,81.021751 40.885452,81.391014 
	C43.141476,84.932823 46.120838,85.838303 49.915859,84.571762 
	C50.820328,84.269913 52.008099,84.816933 53.103798,85.308762 
	C54.492275,87.100288 55.842529,88.556564 57.768276,90.633530 
	C59.163860,88.225212 60.101574,86.607025 61.013168,84.990456 
	C60.987045,84.992073 60.993652,85.043999 61.243881,84.897903 
	C61.997272,84.173767 62.500431,83.595734 63.003586,83.017700 
	C63.446339,83.011749 63.889088,83.005806 64.838326,83.254776 
	C66.230896,83.342613 67.116982,83.175529 68.003067,83.008453 
	C69.069191,83.026688 70.135315,83.044922 71.801994,83.245651 
	C72.963745,83.456154 73.524940,83.484177 74.086136,83.512192 
	C78.191895,85.258118 82.334427,86.923843 86.388191,88.783142 
	C88.476318,89.740875 91.014412,90.869881 89.223640,93.901237 
	C87.712357,96.459480 85.785889,98.630157 82.487450,96.005775 
	C81.983864,95.605103 81.317924,95.408485 80.230957,94.726349 
	C78.314514,94.056404 76.602325,94.313339 76.847557,91.832054 
	C76.914818,91.151451 75.599548,90.334213 74.918701,89.579674 
	C74.051147,90.642464 72.747475,91.597252 72.449394,92.801056 
	C72.195526,93.826309 73.099152,95.138184 73.727837,97.040947 
	C70.946930,96.599663 68.843658,95.850822 66.855904,96.084526 
	C65.322334,96.264832 63.366905,97.374924 62.683640,98.651932 
	C62.241726,99.477859 63.392429,101.836990 64.474594,102.644356 
	C66.286583,103.996201 68.561157,104.806671 70.736450,105.574852 
	C74.172142,106.788116 76.332230,105.897087 76.013847,101.767212 
	C75.791496,98.883064 76.414688,96.739342 79.978065,97.052010 
	C82.461105,98.066650 84.973083,99.017441 87.414551,100.123848 
	C88.571846,100.648300 89.926483,101.231804 90.620171,102.198639 
	C93.529495,106.253548 96.222610,110.463554 98.541817,115.155449 
	C91.100937,114.419655 85.766205,118.168297 81.863922,122.406799 
	C77.885681,126.727791 72.655960,131.424225 74.389404,139.204956 
	C70.028519,134.290588 65.608665,132.519760 60.008396,137.825073 
	C59.350662,138.744446 59.286678,139.414566 59.222694,140.084671 
	C59.232258,140.796219 59.241821,141.507751 58.935966,142.766632 
	C59.119144,144.207306 59.617741,145.100662 60.116337,145.994003 
	C60.116337,145.994003 60.292267,146.179718 60.171955,146.740234 
	C59.616329,148.392380 59.181015,149.483978 58.745701,150.575592 
	C58.745701,150.575592 58.306744,150.493790 58.119377,149.966827 
	C56.136017,147.350861 54.340015,145.261856 52.544018,143.172852 
	C51.857311,142.454529 51.170609,141.736221 49.963638,140.676331 
	C48.333145,140.219711 47.222919,140.104675 46.112694,139.989655 
	C46.112694,139.989655 45.888294,139.702637 45.862862,139.257080 
	C45.617542,138.550079 45.397652,138.288651 45.177761,138.027206 
	C41.310551,131.330460 37.492630,124.899681 36.063232,116.829536 
	C34.677170,109.004059 27.562765,104.107140 21.194592,99.674316 
	C19.860638,98.745758 16.768312,99.671143 14.799977,100.493279 
	C12.240970,101.562141 9.995524,103.381714 7.262461,104.927704 
z"/>
<path fill="#4ED377" opacity="1.000000" stroke="none" 
	d="
M112.391830,179.449814 
	C112.122047,180.492401 111.852272,181.534988 110.978302,182.859161 
	C109.612350,184.876144 108.431961,186.549484 108.163933,188.358047 
	C107.193901,194.903427 101.059830,197.174789 97.664566,203.113525 
	C95.315910,199.188400 92.870567,196.552338 92.100792,193.494476 
	C90.755867,188.151962 86.245529,191.069244 83.611526,189.417313 
	C83.363075,189.261490 83.243172,188.883286 83.091095,188.593857 
	C81.038689,184.687851 78.918816,180.814499 76.988541,176.848892 
	C76.442299,175.726669 76.011711,174.225723 76.289413,173.083588 
	C77.229042,169.219025 78.510246,165.437485 79.651909,161.654022 
	C85.217438,158.738403 88.845161,160.909149 91.694633,166.010574 
	C93.822014,169.819244 97.382919,171.308197 101.748123,170.702515 
	C102.099251,170.667389 102.402443,170.771652 102.819511,171.469666 
	C102.992706,172.276581 103.004082,172.629105 103.050613,173.337463 
	C103.862045,174.420822 104.991661,175.924652 105.360390,175.756805 
	C109.427933,173.905457 110.377136,177.651245 112.391830,179.449814 
z"/>
<path fill="#4AD273" opacity="1.000000" stroke="none" 
	d="
M241.913757,82.683044 
	C239.137405,83.305244 236.261703,83.774101 233.367676,83.964539 
	C230.716904,84.138985 228.032913,83.842590 225.387146,84.051956 
	C218.386520,84.605942 216.487701,87.159843 217.657639,93.470062 
	C215.806335,95.747543 214.268936,97.828491 212.517990,99.710815 
	C211.674484,100.617630 210.442184,101.734909 209.362732,101.760048 
	C200.300690,101.971054 191.230606,101.837631 182.168701,102.051895 
	C178.166718,102.146515 174.178070,102.805084 169.717865,103.595139 
	C167.758148,102.963425 166.263962,101.944199 164.852417,100.526245 
	C164.513977,98.406700 164.092911,96.685890 164.074402,94.976173 
	C165.486130,94.773354 166.495316,94.559441 167.504486,94.345528 
	C167.443054,93.942062 167.381622,93.538589 167.320190,93.135124 
	C166.088745,93.135124 164.857300,93.135124 163.352402,93.112991 
	C162.719788,93.022224 162.360626,92.953598 161.985229,92.489571 
	C159.915955,91.327744 157.862946,90.561317 155.809921,89.794884 
	C155.784760,89.486137 155.892242,89.233910 156.619507,88.926468 
	C157.398102,88.576088 157.689560,88.337440 157.981003,88.098785 
	C164.023590,88.511436 170.061157,89.133102 176.110168,89.278931 
	C182.371628,89.429886 188.484833,91.704529 194.910187,87.550491 
	C199.015427,84.896416 205.021194,85.182060 210.839813,84.385773 
	C213.372925,83.994446 215.241150,83.367073 217.109360,82.739716 
	C217.829575,82.527336 218.549774,82.314957 219.786423,82.312332 
	C220.905930,82.251793 221.509003,81.981483 222.112091,81.711174 
	C224.000290,81.341011 225.888489,80.970848 228.585114,80.698425 
	C232.899261,80.885315 236.404984,80.974472 239.910721,81.063629 
	C240.542618,81.511864 241.174515,81.960106 241.913757,82.683044 
M194.909225,94.847618 
	C195.392944,94.973518 195.897980,95.257675 196.356445,95.195976 
	C197.796021,95.002274 199.506332,95.050682 200.531967,94.256508 
	C201.090683,93.823898 200.728882,90.881088 200.346878,90.784042 
	C198.704819,90.366844 196.755173,90.187599 195.222610,90.751175 
	C194.529312,91.006126 194.548096,93.197517 194.909225,94.847618 
M170.799026,93.394516 
	C170.794800,93.786781 170.790573,94.179054 170.786346,94.571312 
	C170.949127,94.572861 171.253372,94.585335 171.254227,94.574387 
	C171.284378,94.184059 171.286133,93.791534 170.799026,93.394516 
z"/>
<path fill="#4AD273" opacity="1.000000" stroke="none" 
	d="
M178.000000,127.000305 
	C177.382065,127.976044 176.260193,128.935074 176.227173,129.930191 
	C175.996674,136.880859 171.587097,136.579025 166.548660,136.057373 
	C161.037674,135.486801 155.473389,135.333954 149.929199,135.269730 
	C148.921860,135.258057 147.904358,136.555664 146.882767,137.235626 
	C145.593475,138.093750 144.295135,138.938263 143.000702,139.788635 
	C142.332581,138.433441 141.757324,137.021545 140.973022,135.737305 
	C139.974609,134.102417 138.806976,132.570831 137.320862,130.965454 
	C137.217728,130.490021 137.506058,130.043854 138.318481,129.319427 
	C141.197144,128.275940 143.521942,127.042648 145.915497,126.890404 
	C147.906662,126.763763 150.925507,127.266113 151.835403,128.609756 
	C154.457550,132.481781 157.468567,133.689987 161.932144,132.716980 
	C163.342789,132.409485 165.027374,133.447021 166.603287,133.792908 
	C171.447128,134.856018 172.992538,133.636780 173.451279,127.809975 
	C168.660172,130.134201 166.784393,126.917938 164.990814,123.208908 
	C164.178360,120.076721 162.809250,118.042656 159.099854,118.439972 
	C159.445999,120.469391 159.736542,122.172859 159.692322,123.950539 
	C157.899429,124.982460 156.441299,125.940170 154.882263,126.704758 
	C154.599777,126.271835 154.365891,126.105682 154.099945,125.637215 
	C156.124619,122.940926 154.990448,120.693008 152.866943,120.113625 
	C150.694443,119.520882 147.848694,119.869682 145.766876,120.826889 
	C142.612427,122.277275 139.863892,124.610466 136.942886,126.568588 
	C136.270905,124.953453 135.598938,123.338326 135.253906,121.157608 
	C135.675674,120.226891 135.770477,119.861763 135.865295,119.496635 
	C136.988388,118.962402 138.111496,118.428169 139.616638,118.131195 
	C140.518890,118.664215 141.039078,118.959969 141.559250,119.255722 
	C141.106461,118.516762 140.653671,117.777794 140.200897,117.038826 
	C140.162003,116.577644 140.123123,116.116455 140.349228,115.086143 
	C140.696671,113.886864 140.779129,113.256706 140.861588,112.626556 
	C141.327591,112.250427 141.793594,111.874283 142.394897,111.245346 
	C142.530197,110.992554 142.499924,111.042976 142.499924,111.042976 
	C144.831604,109.823372 147.163300,108.603775 149.931549,107.125961 
	C150.654434,106.612312 150.651428,106.347229 150.359100,106.072479 
	C149.573563,104.473335 148.788025,102.874199 147.942841,100.395576 
	C147.876846,99.154297 147.870514,98.792511 147.864166,98.430717 
	C148.048248,97.996323 148.232346,97.561920 148.876740,96.976395 
	C149.630356,96.677284 149.840286,96.451714 149.966843,96.148575 
	C151.079102,95.180382 152.191345,94.212189 153.937073,93.156494 
	C156.095840,94.148209 157.621109,95.227417 159.093201,96.656281 
	C157.695068,100.307892 156.350143,103.609833 154.656921,107.766899 
	C156.696960,107.400932 158.180649,107.134773 159.995926,106.909714 
	C160.549103,106.967407 160.770706,106.984009 161.036896,107.320740 
	C161.720963,108.094009 162.360489,108.547157 163.154083,109.302353 
	C166.205460,109.402931 169.102722,109.201469 172.000000,109.000000 
	C172.427765,110.289261 172.855545,111.578514 173.885132,113.106201 
	C174.662308,114.101593 174.837631,114.858543 174.653595,115.725853 
	C173.418472,116.176636 172.526932,116.843918 171.669662,116.802452 
	C167.322372,116.592194 166.423813,117.994293 168.242737,122.286896 
	C170.985123,122.286896 173.687943,122.286896 176.390762,122.286896 
	C176.390762,122.286896 176.695404,122.643990 176.881195,123.167358 
	C177.377991,124.793915 177.688995,125.897110 178.000000,127.000305 
M174.200989,125.605492 
	C174.205215,125.213303 174.209442,124.821114 174.213669,124.428925 
	C174.050919,124.427368 173.746689,124.414886 173.745850,124.425842 
	C173.715683,124.816101 173.713928,125.208542 174.200989,125.605492 
M152.918518,105.479607 
	C152.774612,105.238159 152.630692,104.996719 152.486786,104.755272 
	C152.353485,105.004288 152.060089,105.317314 152.127563,105.486031 
	C152.211151,105.695068 152.593826,105.784492 152.918518,105.479607 
z"/>
<path fill="#4CD274" opacity="1.000000" stroke="none" 
	d="
M104.124649,72.720154 
	C111.817429,73.114540 119.510201,73.508934 127.613892,74.367935 
	C128.089508,75.335594 128.154221,75.838631 128.218933,76.341667 
	C127.314819,79.314980 127.065605,82.771919 125.325684,85.128006 
	C123.521080,87.571671 120.492790,89.493935 117.602661,90.661377 
	C113.569954,92.290367 109.464905,93.332466 107.163246,97.588272 
	C105.747925,100.205215 103.316566,100.510002 101.522614,98.188110 
	C99.679787,95.802963 97.843231,93.068436 97.148384,90.208725 
	C95.410439,83.056137 93.120811,81.165886 86.059067,81.981636 
	C84.719498,82.136383 83.267372,81.316765 81.867180,80.946724 
	C81.812126,80.469345 81.757072,79.991974 81.702019,79.514595 
	C85.570030,77.738075 89.438042,75.961548 93.809280,74.362961 
	C94.916832,74.292061 95.521179,74.043228 96.125526,73.794395 
	C97.476685,73.535149 98.827850,73.275902 100.768341,73.269554 
	C102.279999,73.255028 103.202324,72.987595 104.124649,72.720154 
z"/>
<path fill="#4ED376" opacity="1.000000" stroke="none" 
	d="
M267.950409,214.724426 
	C265.124817,213.374451 261.549377,212.691605 259.630646,210.534851 
	C255.705078,206.122253 252.040009,206.698288 247.764755,209.348541 
	C246.255951,210.283844 244.648483,211.060028 243.079956,211.912170 
	C238.168625,202.355453 241.308685,192.556198 250.720383,186.988373 
	C250.861557,186.904831 251.048965,186.893723 251.180496,186.800461 
	C253.243988,185.337402 255.393204,182.617004 257.334534,182.758987 
	C259.168304,182.893097 260.782135,186.034302 262.865234,188.248871 
	C263.539215,186.278824 264.084717,184.684250 264.630219,183.089661 
	C266.683105,190.720322 274.946228,195.432480 273.753235,204.591431 
	C269.365234,207.029083 266.495575,209.669952 267.950409,214.724426 
z"/>
<path fill="#4ED376" opacity="1.000000" stroke="none" 
	d="
M101.700516,170.495728 
	C97.382919,171.308197 93.822014,169.819244 91.694633,166.010574 
	C88.845161,160.909149 85.217438,158.738403 79.651909,161.654022 
	C78.510246,165.437485 77.229042,169.219025 76.289413,173.083588 
	C76.011711,174.225723 76.442299,175.726669 76.988541,176.848892 
	C78.918816,180.814499 81.038689,184.687851 83.091095,188.593857 
	C83.243172,188.883286 83.363075,189.261490 83.611526,189.417313 
	C86.245529,191.069244 90.755867,188.151962 92.100792,193.494476 
	C92.870567,196.552338 95.315910,199.188400 97.664566,203.113525 
	C101.059830,197.174789 107.193901,194.903427 108.163933,188.358047 
	C108.431961,186.549484 109.612350,184.876144 110.750175,183.092133 
	C108.733910,196.708435 99.496941,206.026794 90.920273,215.978836 
	C87.365532,220.103622 85.799706,225.942444 82.710327,232.269623 
	C80.848045,232.955429 78.822830,231.577698 78.971336,227.922485 
	C79.166061,223.129517 79.781380,218.343140 80.422134,213.581696 
	C81.064857,208.805557 82.586632,204.058456 82.547913,199.308197 
	C82.517113,195.528900 81.650475,191.088104 79.511246,188.129395 
	C74.620399,181.365021 72.272659,174.783417 76.078529,166.795395 
	C76.723358,165.441971 76.379982,163.617722 76.351715,161.427307 
	C76.813255,160.088425 77.416260,159.333267 78.019272,158.578094 
	C78.473564,158.135712 78.927856,157.693344 80.040794,157.125214 
	C82.450752,157.040878 84.202057,157.082260 85.953369,157.123657 
	C92.121185,157.484131 94.632195,163.026398 98.946365,166.838959 
	C99.493050,167.919418 99.908150,168.360947 100.323250,168.802475 
	C100.323250,168.802475 100.222504,168.880386 100.273315,169.118347 
	C100.651100,169.586166 100.978065,169.816010 101.305023,170.045868 
	C101.305023,170.045868 101.652916,170.288940 101.700516,170.495728 
M84.696777,213.473846 
	C84.218643,215.339752 83.740517,217.205673 83.262383,219.071579 
	C83.830269,219.199356 84.398155,219.327118 84.966042,219.454895 
	C86.532532,217.766769 88.630409,216.202850 84.696777,213.473846 
M83.435081,221.705139 
	C83.706146,221.989212 83.977211,222.273300 84.248276,222.557373 
	C84.365852,222.444992 84.591820,222.241089 84.585373,222.233459 
	C84.332390,221.933823 84.058243,221.652069 83.435081,221.705139 
z"/>
<path fill="#55D37C" opacity="1.000000" stroke="none" 
	d="
M41.051304,81.021141 
	C42.040298,79.876831 42.875435,77.857689 44.008766,77.673508 
	C55.130791,75.866066 66.291862,74.282509 77.467316,72.831459 
	C80.342400,72.458153 83.307152,72.775375 86.310188,73.432961 
	C78.830223,76.360260 71.963745,80.918381 62.920723,80.774445 
	C61.867760,82.503159 61.430706,83.773582 60.993652,85.043999 
	C60.993652,85.043999 60.987045,84.992073 60.642189,84.796616 
	C58.249023,84.210472 56.200718,83.819786 53.918015,83.161957 
	C49.450726,82.270454 45.217838,81.646103 40.984947,81.021751 
	C40.984947,81.021751 41.035824,80.997818 41.051304,81.021141 
z"/>
<path fill="#EBF9EF" opacity="1.000000" stroke="none" 
	d="
M154.983185,126.897881 
	C156.441299,125.940170 157.899429,124.982460 159.822083,124.268738 
	C161.022797,125.372559 161.758987,126.232391 162.596436,127.210487 
	C163.620850,125.648880 164.310593,124.597427 165.000336,123.545959 
	C166.784393,126.917938 168.660172,130.134201 173.451279,127.809975 
	C172.992538,133.636780 171.447128,134.856018 166.603287,133.792908 
	C165.027374,133.447021 163.342789,132.409485 161.932144,132.716980 
	C157.468567,133.689987 154.457550,132.481781 151.835403,128.609756 
	C150.925507,127.266113 147.906662,126.763763 145.915497,126.890404 
	C143.521942,127.042648 141.197144,128.275940 138.459259,129.087631 
	C137.741165,128.459808 137.406357,127.785530 137.007233,126.839920 
	C139.863892,124.610466 142.612427,122.277275 145.766876,120.826889 
	C147.848694,119.869682 150.694443,119.520882 152.866943,120.113625 
	C154.990448,120.693008 156.124619,122.940926 154.122543,125.887352 
	C154.410980,126.641586 154.697083,126.769737 154.983185,126.897881 
z"/>
<path fill="#4AD273" opacity="1.000000" stroke="none" 
	d="
M132.585297,137.137726 
	C132.698105,139.755585 132.695389,142.598068 132.291855,145.382462 
	C132.028351,147.200745 131.183304,148.934769 130.361084,151.426880 
	C134.693939,150.984085 137.031784,151.773315 135.272598,156.106903 
	C134.969833,156.852737 135.916992,158.664078 136.780350,159.229218 
	C140.648514,161.761353 146.749023,161.133881 150.416275,158.141418 
	C150.887360,157.757019 151.489792,157.533585 153.172562,156.607681 
	C152.540588,159.364487 152.147110,161.080948 151.646774,163.263565 
	C152.314896,163.596420 153.395706,164.134872 154.690430,164.779907 
	C153.933990,167.048111 153.165482,169.352509 152.092896,171.878662 
	C151.482727,170.652313 151.164948,169.206528 150.872849,167.755569 
	C150.191284,164.369888 147.966278,162.873474 144.725281,163.359467 
	C140.150833,164.045425 135.438477,165.997650 132.120834,160.796692 
	C128.178101,154.615799 127.604332,148.031708 130.016357,141.191986 
	C130.503510,139.810608 131.524673,138.617569 132.585297,137.137726 
z"/>
<path fill="#ECF9F1" opacity="1.000000" stroke="none" 
	d="
M79.990219,96.695801 
	C76.414688,96.739342 75.791496,98.883064 76.013847,101.767212 
	C76.332230,105.897087 74.172142,106.788116 70.736450,105.574852 
	C68.561157,104.806671 66.286583,103.996201 64.474594,102.644356 
	C63.392429,101.836990 62.241726,99.477859 62.683640,98.651932 
	C63.366905,97.374924 65.322334,96.264832 66.855904,96.084526 
	C68.843658,95.850822 70.946930,96.599663 73.727837,97.040947 
	C73.099152,95.138184 72.195526,93.826309 72.449394,92.801056 
	C72.747475,91.597252 74.051147,90.642464 74.918701,89.579674 
	C75.599548,90.334213 76.914818,91.151451 76.847557,91.832054 
	C76.602325,94.313339 78.314514,94.056404 79.876083,94.624527 
	C80.012344,95.389107 80.007355,95.864349 79.990219,96.695801 
z"/>
<path fill="#57D27D" opacity="1.000000" stroke="none" 
	d="
M77.598137,158.523499 
	C77.416260,159.333267 76.813255,160.088425 76.150375,161.081146 
	C74.046654,160.567657 71.785538,160.151581 70.003998,158.996094 
	C66.250084,156.561356 62.747440,153.739212 58.943695,150.825821 
	C59.181015,149.483978 59.616329,148.392380 60.136513,146.863144 
	C63.656235,149.868881 65.125969,145.083313 67.639229,144.423264 
	C69.040108,150.486359 69.715324,156.821198 77.598137,158.523499 
z"/>
<path fill="#65D487" opacity="1.000000" stroke="none" 
	d="
M264.303558,112.080597 
	C263.626587,110.826073 263.352997,109.694168 263.140533,108.190414 
	C270.020538,110.352898 267.029999,116.115730 266.759369,120.389755 
	C266.336823,127.063248 261.812195,131.232773 254.735352,133.026413 
	C255.801498,131.436386 256.506409,129.199081 257.995972,128.367783 
	C264.628693,124.666283 265.071960,118.660843 264.303558,112.080597 
z"/>
<path fill="#59D380" opacity="1.000000" stroke="none" 
	d="
M259.213074,175.872513 
	C257.300934,174.024200 255.721588,172.319565 254.142242,170.614944 
	C254.546951,170.205353 254.951675,169.795761 255.356400,169.386154 
	C259.799469,172.709564 266.636200,171.630890 270.276794,177.988602 
	C267.592773,178.993225 265.370331,179.825089 263.012146,180.707764 
	C261.791840,179.056091 260.668884,177.536148 259.213074,175.872513 
z"/>
<path fill="#5CD482" opacity="1.000000" stroke="none" 
	d="
M243.694977,170.500366 
	C242.948685,172.159180 242.370575,173.467697 241.801102,174.756622 
	C235.320602,172.271103 234.830978,170.019623 239.099121,165.588303 
	C240.430344,164.206223 241.093353,162.180527 242.062256,160.449463 
	C243.010315,161.014542 243.958389,161.579620 244.906448,162.144699 
	C244.558685,164.813141 244.210907,167.481598 243.694977,170.500366 
z"/>
<path fill="#5CD482" opacity="1.000000" stroke="none" 
	d="
M180.391632,193.408188 
	C181.856323,189.928253 183.250000,186.842819 184.643692,183.757385 
	C185.490494,184.058838 186.337311,184.360291 187.184128,184.661743 
	C185.874130,189.696808 184.564133,194.731873 183.254135,199.766937 
	C182.491837,199.755173 181.729523,199.743423 180.967224,199.731659 
	C180.751678,197.755325 180.536133,195.779007 180.391632,193.408188 
z"/>
<path fill="#6CD48C" opacity="1.000000" stroke="none" 
	d="
M184.609894,77.631073 
	C182.372559,76.859306 180.805099,75.017982 183.451019,74.492363 
	C188.419296,73.505394 193.642441,73.801399 198.865036,74.340881 
	C194.814651,78.024963 189.755966,77.191429 184.609894,77.631073 
z"/>
<path fill="#6FD790" opacity="1.000000" stroke="none" 
	d="
M233.992416,176.018463 
	C239.312408,176.867874 244.636780,177.691925 249.945755,178.605362 
	C250.485489,178.698227 251.208984,179.250854 251.344711,179.731903 
	C251.478653,180.206635 251.137024,181.049072 250.723953,181.406570 
	C248.143509,183.639755 235.599930,180.000900 234.144592,176.339813 
	C234.044327,176.000977 233.992416,176.018463 233.992416,176.018463 
z"/>
<path fill="#DEF6E7" opacity="1.000000" stroke="none" 
	d="
M182.021027,155.879211 
	C177.214218,153.369507 172.798798,144.215912 173.983017,137.934830 
	C175.506958,140.664276 176.558716,142.548035 177.814697,145.039429 
	C178.361664,146.432159 178.704407,147.217270 179.047165,148.002365 
	C180.216888,149.883926 181.386612,151.765503 182.759750,153.916138 
	C182.684357,154.664139 182.405533,155.143066 182.021027,155.879211 
z"/>
<path fill="#59D37F" opacity="1.000000" stroke="none" 
	d="
M142.502350,110.628677 
	C142.499924,111.042976 142.530197,110.992554 142.560059,110.991776 
	C139.771042,109.904114 136.952148,108.817215 133.802979,107.602974 
	C135.511780,104.729599 136.874939,102.437447 138.238113,100.145287 
	C138.849609,100.104469 139.461121,100.063652 140.072617,100.022835 
	C140.883347,103.420021 141.694061,106.817200 142.502350,110.628677 
z"/>
<path fill="#93E1AB" opacity="1.000000" stroke="none" 
	d="
M239.837463,80.686272 
	C236.404984,80.974472 232.899261,80.885315 228.994827,80.649933 
	C227.331543,79.688484 226.128342,78.747330 224.785446,78.092789 
	C223.386902,77.411125 221.853561,77.006065 220.627594,75.661301 
	C227.890594,73.791946 233.439743,78.606789 239.837463,80.686272 
z"/>
<path fill="#5DD183" opacity="1.000000" stroke="none" 
	d="
M152.812408,78.594124 
	C153.420151,77.387642 154.215179,75.759911 155.090500,75.715515 
	C158.317642,75.551857 161.571381,75.912331 165.034790,76.086754 
	C163.143677,80.219971 159.007904,80.984703 152.812408,78.594124 
z"/>
<path fill="#59D380" opacity="1.000000" stroke="none" 
	d="
M245.854553,152.198944 
	C246.040909,150.790756 246.250198,149.773102 246.705765,147.557953 
	C249.330765,153.277832 252.360321,157.540939 251.206650,162.895477 
	C250.683533,163.068207 250.160416,163.240936 249.637283,163.413666 
	C248.384033,159.805603 247.130768,156.197525 245.854553,152.198944 
z"/>
<path fill="#5DD183" opacity="1.000000" stroke="none" 
	d="
M77.982437,144.660126 
	C80.974350,145.767624 83.639000,146.755997 87.464233,148.174850 
	C80.575790,151.357376 77.322105,148.108765 74.572945,143.410004 
	C75.600357,143.787018 76.627762,144.164032 77.982437,144.660126 
z"/>
<path fill="#73D794" opacity="1.000000" stroke="none" 
	d="
M266.774597,84.881195 
	C265.140015,85.662300 263.329071,86.141197 261.286713,86.414902 
	C261.735291,85.753166 262.415222,85.296623 262.876862,84.986671 
	C262.352966,83.616226 261.835114,82.261658 261.317291,80.907089 
	C264.460175,80.907089 267.603058,80.907089 270.745941,80.907089 
	C270.722015,81.284698 270.698120,81.662308 270.674194,82.039917 
	C269.315552,82.886276 267.956909,83.732628 266.774597,84.881195 
z"/>
<path fill="#67D48A" opacity="1.000000" stroke="none" 
	d="
M123.384148,91.657364 
	C125.654533,91.644135 127.596313,91.433426 129.469269,91.702232 
	C130.393478,91.834885 131.190613,92.852921 132.045258,93.470337 
	C130.058838,94.277054 128.085617,95.675941 126.082184,95.720673 
	C124.154808,95.763695 121.205338,95.121834 123.384148,91.657364 
z"/>
<path fill="#63D786" opacity="1.000000" stroke="none" 
	d="
M268.301270,214.774017 
	C266.495575,209.669952 269.365234,207.029083 273.739044,205.021851 
	C272.958954,208.662155 273.133453,213.039719 268.301270,214.774017 
z"/>
<path fill="#D4F3DF" opacity="1.000000" stroke="none" 
	d="
M193.118744,141.809174 
	C186.648773,141.114731 186.527420,141.019150 185.090149,135.471146 
	C188.206100,136.802765 191.030792,138.009888 194.314148,139.477325 
	C194.883667,140.135742 194.994507,140.533859 195.105347,140.931976 
	C194.501846,141.134430 193.898346,141.336899 193.118744,141.809174 
z"/>
<path fill="#65D487" opacity="1.000000" stroke="none" 
	d="
M192.140564,81.054382 
	C193.459610,80.999489 194.406372,80.999489 196.714844,80.999489 
	C193.646759,83.471893 191.564774,85.210434 189.349258,86.757759 
	C189.237030,86.836128 187.973160,85.265533 187.245499,84.462708 
	C188.753098,83.344902 190.260681,82.227089 192.140564,81.054382 
z"/>
<path fill="#60D285" opacity="1.000000" stroke="none" 
	d="
M245.674149,170.926483 
	C246.863220,169.690338 247.868668,168.785812 248.874130,167.881287 
	C249.356216,168.191910 249.838303,168.502533 250.320374,168.813156 
	C249.074280,171.323288 247.828186,173.833435 246.582092,176.343567 
	C246.218231,174.648407 245.854385,172.953247 245.674149,170.926483 
z"/>
<path fill="#4ED376" opacity="1.000000" stroke="none" 
	d="
M159.146393,96.306618 
	C157.621109,95.227417 156.095840,94.148209 154.213623,93.006226 
	C154.090210,92.412018 154.323715,91.880592 155.011856,91.041862 
	C155.614410,90.434532 155.762360,90.134521 155.910294,89.834503 
	C155.910294,89.834503 155.843323,89.859383 155.826630,89.827133 
	C157.862946,90.561317 159.915955,91.327744 161.739822,92.692215 
	C160.722580,94.295708 159.934479,95.301163 159.146393,96.306618 
z"/>
<path fill="#4ED376" opacity="1.000000" stroke="none" 
	d="
M112.396149,179.406174 
	C110.377136,177.651245 109.427933,173.905457 105.360390,175.756805 
	C104.991661,175.924652 103.862045,174.420822 103.333893,173.326279 
	C104.042168,172.677597 104.502319,172.395935 104.962463,172.114258 
	C105.744797,172.180374 106.527130,172.246475 107.788895,172.787415 
	C109.046448,173.433044 109.824570,173.603851 110.602684,173.774658 
	C110.602684,173.774673 110.813431,173.711853 111.021194,174.047119 
	C111.556564,174.564255 111.884163,174.746109 112.211761,174.927963 
	C112.512993,175.734039 112.814217,176.540115 112.819321,177.824860 
	C112.478561,178.627518 112.433937,178.951538 112.389320,179.275543 
	C112.389320,179.275543 112.400467,179.362534 112.396149,179.406174 
z"/>
<path fill="#57D27D" opacity="1.000000" stroke="none" 
	d="
M52.661205,143.515244 
	C54.340015,145.261856 56.136017,147.350861 57.958397,149.812149 
	C56.249317,148.075500 54.513855,145.966568 52.661205,143.515244 
z"/>
<path fill="#76D896" opacity="1.000000" stroke="none" 
	d="
M128.606995,76.299591 
	C128.154221,75.838631 128.089508,75.335594 128.001541,74.453476 
	C129.557251,73.887993 131.136246,73.701591 132.715240,73.515182 
	C132.814011,74.080063 132.912781,74.644943 133.011566,75.209816 
	C131.672729,75.559052 130.333893,75.908279 128.606995,76.299591 
z"/>
<path fill="#4ED376" opacity="1.000000" stroke="none" 
	d="
M226.462082,165.171295 
	C231.065750,164.744446 229.702393,167.401581 228.882065,170.186523 
	C227.982208,168.886917 227.151703,167.163620 226.462082,165.171295 
z"/>
<path fill="#73D794" opacity="1.000000" stroke="none" 
	d="
M247.691406,83.584099 
	C246.448990,83.832413 244.791946,83.943787 243.020096,83.752312 
	C244.362457,83.448692 245.819595,83.447929 247.691406,83.584099 
z"/>
<path fill="#57D27D" opacity="1.000000" stroke="none" 
	d="
M46.133312,140.291046 
	C47.222919,140.104675 48.333145,140.219711 49.681038,140.567902 
	C48.541389,142.940430 47.279667,142.993576 46.133312,140.291046 
z"/>
<path fill="#71D791" opacity="1.000000" stroke="none" 
	d="
M216.766190,82.614624 
	C215.241150,83.367073 213.372925,83.994446 211.278152,84.411789 
	C212.842056,83.631027 214.632538,83.060280 216.766190,82.614624 
z"/>
<path fill="#57D27D" opacity="1.000000" stroke="none" 
	d="
M85.737595,156.888123 
	C84.202057,157.082260 82.450752,157.040878 80.328270,156.990326 
	C81.812012,156.871643 83.666916,156.762115 85.737595,156.888123 
z"/>
<path fill="#4ED376" opacity="1.000000" stroke="none" 
	d="
M195.493225,140.918976 
	C194.994507,140.533859 194.883667,140.135742 194.677765,139.441376 
	C196.004532,139.522354 197.426392,139.899567 198.917511,140.656799 
	C197.951569,140.993195 196.916336,140.949600 195.493225,140.918976 
z"/>
<path fill="#4ED376" opacity="1.000000" stroke="none" 
	d="
M202.845612,144.385162 
	C203.906631,144.979980 205.135208,145.840149 206.083435,146.897568 
	C204.873123,146.280060 203.943146,145.465286 202.845612,144.385162 
z"/>
<path fill="#57D27D" opacity="1.000000" stroke="none" 
	d="
M60.109684,145.665054 
	C59.617741,145.100662 59.119144,144.207306 58.901054,143.121048 
	C59.488720,143.730789 59.795876,144.533447 60.109684,145.665054 
z"/>
<path fill="#76D896" opacity="1.000000" stroke="none" 
	d="
M103.817581,72.567169 
	C103.202324,72.987595 102.279999,73.255028 101.185593,73.294449 
	C101.845848,72.849030 102.678177,72.631607 103.817581,72.567169 
z"/>
<path fill="#DBF5E4" opacity="1.000000" stroke="none" 
	d="
M61.243881,84.897903 
	C61.430706,83.773582 61.867760,82.503159 62.626129,81.071815 
	C62.968498,81.378937 62.989552,81.846992 63.007095,82.666367 
	C62.500431,83.595734 61.997272,84.173767 61.243881,84.897903 
z"/>
<path fill="#DBF5E4" opacity="1.000000" stroke="none" 
	d="
M67.821060,82.758720 
	C67.116982,83.175529 66.230896,83.342613 65.170364,83.262062 
	C65.876968,82.845955 66.758011,82.677467 67.821060,82.758720 
z"/>
<path fill="#73D794" opacity="1.000000" stroke="none" 
	d="
M287.550110,89.498199 
	C286.474396,89.649628 285.369141,89.479858 284.082764,89.032753 
	C284.660004,88.548523 285.418396,88.341629 286.571472,88.090485 
	C287.150940,88.423149 287.335724,88.800064 287.550110,89.498199 
z"/>
<path fill="#73D794" opacity="1.000000" stroke="none" 
	d="
M252.956177,84.647263 
	C252.137390,84.687759 251.158630,84.445534 250.038391,83.931534 
	C250.863358,83.894684 251.829773,84.129608 252.956177,84.647263 
z"/>
<path fill="#4ED376" opacity="1.000000" stroke="none" 
	d="
M140.067535,117.195465 
	C140.653671,117.777794 141.106461,118.516762 141.559250,119.255722 
	C141.039078,118.959969 140.518890,118.664215 139.949799,118.065331 
	C139.900909,117.762199 139.934158,117.352104 140.067535,117.195465 
z"/>
<path fill="#4AD273" opacity="1.000000" stroke="none" 
	d="
M136.644058,131.056625 
	C136.470596,131.908585 136.003769,132.884827 135.168335,133.863953 
	C135.316727,132.971542 135.833710,132.076218 136.644058,131.056625 
z"/>
<path fill="#4ED376" opacity="1.000000" stroke="none" 
	d="
M224.060455,150.330139 
	C224.928406,150.452286 225.909409,150.875580 226.945923,151.645905 
	C226.058807,151.539047 225.116165,151.085175 224.060455,150.330139 
z"/>
<path fill="#73D794" opacity="1.000000" stroke="none" 
	d="
M257.754211,86.578003 
	C257.422333,86.832718 256.739685,86.928818 255.975433,86.810242 
	C256.397034,86.536850 256.900238,86.478119 257.754211,86.578003 
z"/>
<path fill="#73D794" opacity="1.000000" stroke="none" 
	d="
M272.347565,86.315979 
	C271.769989,86.448128 270.992218,86.349365 270.054810,85.984619 
	C270.645905,85.840775 271.396606,85.962929 272.347565,86.315979 
z"/>
<path fill="#57D27D" opacity="1.000000" stroke="none" 
	d="
M104.767395,171.916992 
	C104.502319,172.395935 104.042168,172.677597 103.298737,172.970459 
	C103.004082,172.629105 102.992706,172.276581 102.975494,171.660461 
	C103.503883,171.504501 104.038101,171.612122 104.767395,171.916992 
z"/>
<path fill="#73D794" opacity="1.000000" stroke="none" 
	d="
M279.411194,87.278160 
	C278.865082,87.472420 278.153656,87.468971 277.206055,87.179611 
	C277.728546,86.955956 278.487244,87.018204 279.411194,87.278160 
z"/>
<path fill="#4ED376" opacity="1.000000" stroke="none" 
	d="
M234.228622,170.566391 
	C233.642914,170.288910 232.914413,169.706604 232.256195,168.715027 
	C232.912933,168.957672 233.499374,169.609619 234.228622,170.566391 
z"/>
<path fill="#57D27D" opacity="1.000000" stroke="none" 
	d="
M59.416718,139.873322 
	C59.286678,139.414566 59.350662,138.744446 59.719536,138.042999 
	C59.886524,138.561752 59.748631,139.111862 59.416718,139.873322 
z"/>
<path fill="#DBF5E4" opacity="1.000000" stroke="none" 
	d="
M74.014954,83.262985 
	C73.524940,83.484177 72.963745,83.456154 72.200699,83.213829 
	C72.647163,83.004272 73.295464,83.009026 74.014954,83.262985 
z"/>
<path fill="#57D27D" opacity="1.000000" stroke="none" 
	d="
M110.425247,173.513275 
	C109.824570,173.603851 109.046448,173.433044 108.131439,172.986176 
	C108.745628,172.890717 109.496712,173.071320 110.425247,173.513275 
z"/>
<path fill="#71D791" opacity="1.000000" stroke="none" 
	d="
M221.843750,81.576309 
	C221.509003,81.981483 220.905930,82.251793 220.165680,82.323929 
	C220.544128,81.897652 221.059769,81.669548 221.843750,81.576309 
z"/>
<path fill="#76D896" opacity="1.000000" stroke="none" 
	d="
M95.860260,73.646912 
	C95.521179,74.043228 94.916832,74.292061 94.175362,74.351990 
	C94.557152,73.941872 95.076080,73.720650 95.860260,73.646912 
z"/>
<path fill="#4ED376" opacity="1.000000" stroke="none" 
	d="
M216.314056,145.937744 
	C216.590363,145.405212 217.159225,144.760315 218.101044,144.127762 
	C217.851532,144.701889 217.229080,145.263641 216.314056,145.937744 
z"/>
<path fill="#4ED376" opacity="1.000000" stroke="none" 
	d="
M231.200378,175.316376 
	C231.728851,174.991333 232.420288,174.994232 233.457108,174.996246 
	C233.829544,175.166733 233.856583,175.338120 233.938019,175.763977 
	C233.992416,176.018463 234.044327,176.000977 234.051239,175.973969 
	C233.159882,175.846100 232.261612,175.745224 231.200378,175.316376 
z"/>
<path fill="#4ED376" opacity="1.000000" stroke="none" 
	d="
M140.566650,112.810776 
	C140.779129,113.256706 140.696671,113.886864 140.381622,114.739975 
	C140.189926,114.306953 140.230835,113.650970 140.566650,112.810776 
z"/>
<path fill="#57D27D" opacity="1.000000" stroke="none" 
	d="
M100.291168,168.494049 
	C99.908150,168.360947 99.493050,167.919418 99.078888,167.142487 
	C99.472908,167.266602 99.865997,167.726120 100.291168,168.494049 
z"/>
<path fill="#65D487" opacity="1.000000" stroke="none" 
	d="
M263.131714,107.580399 
	C262.891754,107.635010 262.574005,107.411232 262.212341,106.885635 
	C262.463593,106.823219 262.758759,107.062622 263.131714,107.580399 
z"/>
<path fill="#4ED376" opacity="1.000000" stroke="none" 
	d="
M147.629471,98.661423 
	C147.870514,98.792511 147.876846,99.154297 147.867889,100.059921 
	C147.699982,100.033211 147.547379,99.462669 147.629471,98.661423 
z"/>
<path fill="#4ED376" opacity="1.000000" stroke="none" 
	d="
M149.722717,96.177193 
	C149.840286,96.451714 149.630356,96.677284 149.110916,96.891968 
	C148.966019,96.615631 149.163956,96.364677 149.722717,96.177193 
z"/>
<path fill="#57D27D" opacity="1.000000" stroke="none" 
	d="
M112.608955,179.141556 
	C112.433937,178.951538 112.478561,178.627518 112.733536,178.155151 
	C112.905457,178.340393 112.867027,178.673981 112.608955,179.141556 
z"/>
<path fill="#4ED376" opacity="1.000000" stroke="none" 
	d="
M135.630280,119.674149 
	C135.770477,119.861763 135.675674,120.226891 135.365356,120.779068 
	C135.231674,120.594635 135.313461,120.223152 135.630280,119.674149 
z"/>
<path fill="#57D27D" opacity="1.000000" stroke="none" 
	d="
M112.092224,174.661774 
	C111.884163,174.746109 111.556564,174.564255 111.099258,174.124573 
	C111.303925,174.043015 111.638298,174.219299 112.092224,174.661774 
z"/>
<path fill="#4ED376" opacity="1.000000" stroke="none" 
	d="
M234.409180,159.276779 
	C234.344879,159.033539 234.580963,158.660858 235.149170,158.198105 
	C235.224075,158.454468 234.966827,158.800903 234.409180,159.276779 
z"/>
<path fill="#4AD273" opacity="1.000000" stroke="none" 
	d="
M134.671722,133.940277 
	C134.884796,134.180969 134.748611,134.476334 134.285736,134.849121 
	C134.196915,134.669861 134.318054,134.359329 134.671722,133.940277 
z"/>
<path fill="#4AD273" opacity="1.000000" stroke="none" 
	d="
M155.666519,89.939041 
	C155.762360,90.134521 155.614410,90.434532 155.249146,90.867790 
	C155.162125,90.681885 155.292435,90.362740 155.666519,89.939041 
z"/>
<path fill="#57D27D" opacity="1.000000" stroke="none" 
	d="
M45.202278,138.287262 
	C45.397652,138.288651 45.617542,138.550079 45.862282,139.074921 
	C45.667015,139.074646 45.446907,138.810989 45.202278,138.287262 
z"/>
<path fill="#4ED376" opacity="1.000000" stroke="none" 
	d="
M157.682129,88.084564 
	C157.689560,88.337440 157.398102,88.576088 156.815582,88.844238 
	C156.810760,88.605949 157.097000,88.338142 157.682129,88.084564 
z"/>
<path fill="#57D27D" opacity="1.000000" stroke="none" 
	d="
M101.221329,169.751984 
	C100.978065,169.816010 100.651100,169.586166 100.260735,169.055923 
	C100.510773,168.989716 100.824203,169.223907 101.221329,169.751984 
z"/>
<path fill="#4ED376" opacity="1.000000" stroke="none" 
	d="
M150.230988,106.284103 
	C150.651428,106.347229 150.654434,106.612312 150.217438,106.928452 
	C150.066742,106.989166 150.102890,106.495735 150.230988,106.284103 
z"/>
<path fill="#4ED376" opacity="1.000000" stroke="none" 
	d="
M222.257263,145.328827 
	C222.443481,145.345383 222.645844,145.627167 222.868256,146.179596 
	C222.683350,146.164841 222.478378,145.879440 222.257263,145.328827 
z"/>
<path fill="#4ED376" opacity="1.000000" stroke="none" 
	d="
M231.153534,163.759521 
	C230.978897,163.784698 230.761887,163.541931 230.681793,163.166885 
	C230.916214,163.186935 231.013702,163.339249 231.153534,163.759521 
z"/>
<path fill="#4ED376" opacity="1.000000" stroke="none" 
	d="
M206.321625,153.362488 
	C206.528366,153.394913 206.693878,153.707062 206.865387,154.293442 
	C206.674408,154.259186 206.477402,153.950714 206.321625,153.362488 
z"/>
<path fill="#4ED376" opacity="1.000000" stroke="none" 
	d="
M210.225357,159.120331 
	C210.129639,158.901657 210.308578,158.594467 210.717529,158.149139 
	C210.798355,158.351288 210.649185,158.691574 210.225357,159.120331 
z"/>
<path fill="#4BD475" opacity="1.000000" stroke="none" 
	d="
M171.999802,108.629646 
	C169.102722,109.201469 166.205460,109.402931 163.153320,108.895851 
	C162.583298,106.616928 162.168137,105.046547 161.837036,103.191147 
	C162.870621,102.245743 163.820190,101.585358 164.769760,100.924973 
	C166.263962,101.944199 167.758148,102.963425 169.625870,103.991241 
	C170.666138,105.419655 171.332870,106.839470 171.999802,108.629646 
z"/>
<path fill="#DEF6E6" opacity="1.000000" stroke="none" 
	d="
M176.518509,122.197906 
	C173.687943,122.286896 170.985123,122.286896 168.242737,122.286896 
	C166.423813,117.994293 167.322372,116.592194 171.669662,116.802452 
	C172.526932,116.843918 173.418472,116.176636 174.827057,116.041183 
	C176.173355,117.045143 176.986847,117.844139 177.800323,118.643135 
	C177.800323,118.643135 177.747726,118.833260 177.800171,118.916290 
	C177.879089,119.425400 177.905579,119.851471 177.731628,120.728172 
	C177.335724,121.459358 177.140274,121.739922 176.944824,122.020485 
	C176.944824,122.020485 176.646255,122.108925 176.518509,122.197906 
z"/>
<path fill="#4BD475" opacity="1.000000" stroke="none" 
	d="
M185.069305,115.211212 
	C185.584152,114.174423 186.098999,113.137634 186.613846,112.100845 
	C187.673676,112.679535 188.987747,113.035652 189.734421,113.888512 
	C190.885681,115.203506 191.928314,116.759163 192.509689,118.393242 
	C193.370468,120.812599 193.756393,123.376427 189.569916,123.680679 
	C188.672974,122.354744 188.281876,121.323029 187.923492,119.868935 
	C187.959625,118.601624 187.963058,117.756699 187.901855,116.577805 
	C186.914597,115.899620 185.991943,115.555420 185.069305,115.211212 
z"/>
<path fill="#E0F6E7" opacity="1.000000" stroke="none" 
	d="
M184.982269,115.460434 
	C185.991943,115.555420 186.914597,115.899620 187.651611,116.790070 
	C187.607590,118.321304 187.749191,119.306313 187.890778,120.291321 
	C188.281876,121.323029 188.672974,122.354744 189.201447,123.690163 
	C189.306870,124.442520 189.274902,124.891174 189.299530,125.673462 
	C188.206802,128.267471 186.883774,128.238098 186.079819,125.931259 
	C185.163269,123.301353 184.677765,120.521217 183.988831,117.403030 
	C184.280228,116.569672 184.587723,116.139656 184.982269,115.460434 
z"/>
<path fill="#4BD475" opacity="1.000000" stroke="none" 
	d="
M177.856598,118.205879 
	C176.986847,117.844139 176.173355,117.045143 175.186417,115.930817 
	C174.837631,114.858543 174.662308,114.101593 174.242874,113.171555 
	C175.077530,112.414314 176.156265,111.830147 177.235016,111.245979 
	C177.729431,112.317574 178.512100,113.357285 178.635178,114.469948 
	C178.752396,115.529915 178.181335,116.666000 177.856598,118.205879 
z"/>
<path fill="#4ED376" opacity="1.000000" stroke="none" 
	d="
M179.405594,148.041046 
	C178.704407,147.217270 178.361664,146.432159 178.008911,145.322937 
	C178.440979,144.099747 179.280685,143.177338 179.229614,142.307236 
	C179.157349,141.075943 178.427582,139.883224 177.657715,137.808624 
	C182.930481,139.385727 186.077774,141.593155 187.496628,145.846649 
	C184.919098,146.591003 182.341553,147.335358 179.405594,148.041046 
z"/>
<path fill="#4ED376" opacity="1.000000" stroke="none" 
	d="
M178.389282,127.011772 
	C177.688995,125.897110 177.377991,124.793915 177.033798,123.345665 
	C182.805801,122.647812 182.597015,127.979591 184.977722,131.219925 
	C183.657623,132.755142 182.418259,134.196503 181.178894,135.637848 
	C180.846268,135.569763 180.513641,135.501694 180.181030,135.433609 
	C180.343582,133.811401 180.795410,132.148865 180.576736,130.579788 
	C180.403259,129.334915 179.408615,128.204483 178.389282,127.011772 
z"/>
<path fill="#4ED376" opacity="1.000000" stroke="none" 
	d="
M205.347809,138.453674 
	C207.187195,139.700485 208.717422,141.096527 210.247650,142.492569 
	C209.991241,142.857117 209.734848,143.221680 209.478439,143.586243 
	C207.496002,142.872833 205.513565,142.159424 203.084061,141.285110 
	C203.808014,140.291656 204.423340,139.447281 205.347809,138.453674 
z"/>
<path fill="#4ED376" opacity="1.000000" stroke="none" 
	d="
M177.180298,121.902374 
	C177.140274,121.739922 177.335724,121.459358 177.754837,121.047539 
	C177.790909,121.205612 177.603333,121.494942 177.180298,121.902374 
z"/>
<path fill="#CDF1D8" opacity="1.000000" stroke="none" 
	d="
M40.885452,81.391014 
	C45.217838,81.646103 49.450726,82.270454 53.818420,83.474586 
	C53.657337,84.360748 53.361454,84.667130 53.065567,84.973511 
	C52.008099,84.816933 50.820328,84.269913 49.915859,84.571762 
	C46.120838,85.838303 43.141476,84.932823 40.885452,81.391014 
z"/>
<path fill="#DBF5E4" opacity="1.000000" stroke="none" 
	d="
M53.103798,85.308762 
	C53.361454,84.667130 53.657337,84.360748 54.052818,83.741730 
	C56.200718,83.819786 58.249023,84.210472 60.668312,84.794998 
	C60.101574,86.607025 59.163860,88.225212 57.768276,90.633530 
	C55.842529,88.556564 54.492275,87.100288 53.103798,85.308762 
z"/>
<path fill="#E2F7E9" opacity="1.000000" stroke="none" 
	d="
M164.852417,100.526245 
	C163.820190,101.585358 162.870621,102.245743 161.612823,103.401329 
	C160.941772,104.613663 160.578979,105.330788 160.040222,106.227531 
	C159.797592,106.560974 159.730957,106.714798 159.664337,106.868614 
	C158.180649,107.134773 156.696960,107.400932 154.656921,107.766899 
	C156.350143,103.609833 157.695068,100.307892 159.093201,96.656281 
	C159.934479,95.301163 160.722580,94.295708 161.756073,93.087608 
	C162.360626,92.953598 162.719788,93.022224 163.364609,93.417892 
	C163.657455,94.151642 163.664642,94.558357 163.671844,94.965080 
	C164.092911,96.685890 164.513977,98.406700 164.852417,100.526245 
M162.520447,97.977669 
	C162.557495,97.687225 162.594528,97.396790 162.631577,97.106346 
	C162.438980,97.232338 162.246368,97.358330 162.520447,97.977669 
z"/>
<path fill="#4BD374" opacity="1.000000" stroke="none" 
	d="
M194.576538,94.679008 
	C194.548096,93.197517 194.529312,91.006126 195.222610,90.751175 
	C196.755173,90.187599 198.704819,90.366844 200.346878,90.784042 
	C200.728882,90.881088 201.090683,93.823898 200.531967,94.256508 
	C199.506332,95.050682 197.796021,95.002274 196.356445,95.195976 
	C195.897980,95.257675 195.392944,94.973518 194.576538,94.679008 
z"/>
<path fill="#4ED376" opacity="1.000000" stroke="none" 
	d="
M164.074387,94.976173 
	C163.664642,94.558357 163.657455,94.151642 163.638062,93.440018 
	C164.857300,93.135124 166.088745,93.135124 167.320190,93.135124 
	C167.381622,93.538589 167.443054,93.942062 167.504486,94.345528 
	C166.495316,94.559441 165.486130,94.773354 164.074387,94.976173 
z"/>
<path fill="#4ED376" opacity="1.000000" stroke="none" 
	d="
M171.045441,93.396919 
	C171.286133,93.791534 171.284378,94.184059 171.254227,94.574387 
	C171.253372,94.585335 170.949127,94.572861 170.786346,94.571320 
	C170.790573,94.179054 170.794800,93.786781 171.045441,93.396919 
z"/>
<path fill="#4BD475" opacity="1.000000" stroke="none" 
	d="
M164.990814,123.208916 
	C164.310593,124.597427 163.620850,125.648880 162.596436,127.210487 
	C161.758987,126.232391 161.022797,125.372559 160.156845,124.194527 
	C159.736542,122.172859 159.445999,120.469391 159.099854,118.439972 
	C162.809250,118.042656 164.178360,120.076721 164.990814,123.208916 
z"/>
<path fill="#4ED376" opacity="1.000000" stroke="none" 
	d="
M160.216187,106.047913 
	C160.578979,105.330788 160.941772,104.613663 161.528778,103.686348 
	C162.168137,105.046547 162.583298,106.616928 162.999237,108.593811 
	C162.360489,108.547157 161.720963,108.094009 160.959457,107.123627 
	C160.690109,106.353767 160.483017,106.167618 160.216187,106.047913 
z"/>
<path fill="#4BD475" opacity="1.000000" stroke="none" 
	d="
M173.954590,125.603088 
	C173.713928,125.208542 173.715683,124.816101 173.745850,124.425842 
	C173.746689,124.414886 174.050919,124.427368 174.213669,124.428925 
	C174.209442,124.821114 174.205215,125.213303 173.954590,125.603088 
z"/>
<path fill="#4ED376" opacity="1.000000" stroke="none" 
	d="
M152.882919,105.702591 
	C152.593826,105.784492 152.211151,105.695068 152.127563,105.486031 
	C152.060089,105.317314 152.353485,105.004288 152.486786,104.755272 
	C152.630692,104.996719 152.774612,105.238159 152.882919,105.702591 
z"/>
<path fill="#4ED376" opacity="1.000000" stroke="none" 
	d="
M154.882263,126.704758 
	C154.697083,126.769737 154.410980,126.641586 154.102280,126.263298 
	C154.365891,126.105682 154.599777,126.271835 154.882263,126.704758 
z"/>
<path fill="#4BD475" opacity="1.000000" stroke="none" 
	d="
M160.040222,106.227531 
	C160.483017,106.167618 160.690109,106.353767 160.914886,106.803497 
	C160.770706,106.984009 160.549103,106.967407 159.995926,106.909714 
	C159.730957,106.714798 159.797592,106.560974 160.040222,106.227531 
z"/>
<path fill="#4ED377" opacity="1.000000" stroke="none" 
	d="
M85.042152,213.432312 
	C88.630409,216.202850 86.532532,217.766769 84.966042,219.454895 
	C84.398155,219.327118 83.830269,219.199356 83.262383,219.071579 
	C83.740517,217.205673 84.218643,215.339752 85.042152,213.432312 
z"/>
<path fill="#4ED377" opacity="1.000000" stroke="none" 
	d="
M83.610962,221.536560 
	C84.058243,221.652069 84.332390,221.933823 84.585373,222.233459 
	C84.591820,222.241089 84.365852,222.444992 84.248276,222.557373 
	C83.977211,222.273300 83.706146,221.989212 83.610962,221.536560 
z"/>
<path fill="#4ED376" opacity="1.000000" stroke="none" 
	d="
M187.923492,119.868935 
	C187.749191,119.306313 187.607590,118.321304 187.716232,117.124039 
	C187.963058,117.756699 187.959625,118.601624 187.923492,119.868935 
z"/>
<path fill="#4ED376" opacity="1.000000" stroke="none" 
	d="
M162.287109,97.730988 
	C162.246368,97.358330 162.438980,97.232338 162.631577,97.106346 
	C162.594528,97.396790 162.557495,97.687225 162.287109,97.730988 
z"/>
</svg>